<svg width="65" height="55" viewBox="0 0 65 55" xmlns="http://www.w3.org/2000/svg">
<path d="M53.2564 20.9562H11.7434C11.2172 20.9562 10.7905 21.3827 10.7905 21.9091C10.7905 22.4354 11.2171 22.862 11.7434 22.862H53.2564C53.7826 22.862 54.2093 22.4354 54.2093 21.9091C54.2093 21.3827 53.7826 20.9562 53.2564 20.9562Z" fill="#9898A7"/>
<path d="M38.4713 25.7631H11.7434C11.2172 25.7631 10.7905 26.1896 10.7905 26.716C10.7905 27.2423 11.2171 27.6689 11.7434 27.6689H38.4713C38.9975 27.6689 39.4242 27.2423 39.4242 26.716C39.424 26.1896 38.9975 25.7631 38.4713 25.7631Z" fill="#9898A7"/>
<path d="M35.422 32.4752C35.9482 32.4752 36.3749 32.0486 36.3749 31.5222C36.3749 30.9959 35.9483 30.5693 35.422 30.5693H11.7434C11.2172 30.5693 10.7905 30.9959 10.7905 31.5222C10.7905 32.0486 11.2171 32.4752 11.7434 32.4752H35.422Z" fill="#9898A7"/>
<path d="M39.4475 16.2137C40.5795 16.2137 41.5005 15.2926 41.5005 14.1607V12.4855C41.5005 11.3534 40.5795 10.4325 39.4475 10.4325H25.5522C24.4202 10.4325 23.4993 11.3535 23.4993 12.4855V14.1607C23.4993 15.2928 24.4202 16.2137 25.5522 16.2137H39.4475ZM25.4051 14.1607V12.4855C25.4051 12.4042 25.4711 12.3382 25.5524 12.3382H39.4476C39.5287 12.3382 39.5949 12.4042 39.5949 12.4855V14.1607C39.5949 14.242 39.5289 14.308 39.4476 14.308H25.5522C25.4711 14.308 25.4051 14.242 25.4051 14.1607Z" fill="#9898A7"/>
<path d="M35.8772 39.8231H11.9303C11.3212 37.3421 9.41865 35.4056 6.94903 34.7534V25.8722C6.94903 25.3459 6.52247 24.9193 5.99612 24.9193C5.46977 24.9193 5.04321 25.3459 5.04321 25.8722V34.7851C5.04321 35.6367 5.61298 36.3777 6.42852 36.5869C8.2489 37.0546 9.65085 38.4812 10.0873 40.31C10.2866 41.1454 11.0311 41.7288 11.8977 41.7288H35.8771C36.4033 41.7288 36.83 41.3022 36.83 40.7759C36.8301 40.2497 36.4034 39.8231 35.8772 39.8231Z" fill="#9898A7"/>
<path d="M58.571 10.7041C56.7507 10.2364 55.3486 8.80984 54.9123 6.98108C54.713 6.14561 53.9685 5.56226 53.1019 5.56226H11.8978C11.0312 5.56226 10.2867 6.14561 10.0876 6.98096C9.65109 8.80972 8.24915 10.2363 6.42902 10.704C5.61322 10.9135 5.04346 11.6544 5.04346 12.506V21.4174C5.04346 21.9438 5.47002 22.3703 5.99637 22.3703C6.52271 22.3703 6.94928 21.9438 6.94928 21.4174V12.538C9.41864 11.8855 11.3213 9.94925 11.9305 7.46808H53.0694C53.6787 9.94912 55.5811 11.8855 58.0507 12.5378V29.458C58.0507 29.9844 58.4773 30.4109 59.0036 30.4109C59.53 30.4109 59.9565 29.9844 59.9565 29.458V12.506C59.9564 11.6545 59.3865 10.9135 58.571 10.7041Z" fill="#9898A7"/>
<path d="M60.6097 0.637573H4.39029C1.96955 0.637573 0 2.60712 0 5.02799V42.2631C0 44.684 1.96955 46.6535 4.39029 46.6535H42.8214L41.2586 50.7414C40.837 51.8441 41.8453 52.9604 42.9856 52.6532L44.7421 52.179L45.7363 53.7056C46.3812 54.696 47.8767 54.5351 48.2978 53.4329L49.6308 49.9459L50.9639 53.4329C51.3858 54.5368 52.8814 54.6948 53.5255 53.7056L54.5196 52.179L56.276 52.6532C57.4156 52.9609 58.4248 51.8445 58.0031 50.7413L56.4403 46.6535H60.6096C63.0304 46.6535 64.9999 44.684 64.9999 42.2631V5.02799C65 2.60712 63.0304 0.637573 60.6097 0.637573ZM41.4573 35.5633C40.982 35.1557 41.2381 34.3859 41.8562 34.336C43.4486 34.2074 44.5499 32.6887 44.1806 31.1365C44.037 30.5335 44.6899 30.0518 45.2246 30.3781C46.5885 31.21 48.3722 30.6287 48.9856 29.1561C49.2245 28.5822 50.0358 28.5791 50.2761 29.1561C50.89 30.6304 52.6754 31.2093 54.0372 30.3781C54.5676 30.0545 55.2259 30.5286 55.0812 31.1365C54.7113 32.6906 55.8151 34.2075 57.4057 34.336C58.0266 34.3862 58.2778 35.1573 57.8044 35.5633C56.5916 36.603 56.5933 38.4794 57.8044 39.5179C58.2797 39.9254 58.0237 40.6952 57.4055 40.7451C55.8132 40.8737 54.7118 42.3925 55.0812 43.9446C55.2255 44.5508 54.5698 45.0276 54.0372 44.703C52.6736 43.8712 50.8894 44.4523 50.2762 45.9251C50.0381 46.497 49.2265 46.5032 48.9858 45.9251C48.3722 44.4519 46.5865 43.8721 45.2248 44.7031C44.6926 45.0274 44.0362 44.5513 44.1807 43.9446C44.5505 42.3905 43.4468 40.8736 41.8562 40.7451C41.2353 40.695 40.984 39.9239 41.4574 39.5179C42.67 38.4781 42.6684 36.6017 41.4573 35.5633ZM46.8402 51.9086L46.1566 50.8587C45.8137 50.3321 45.1755 50.0886 44.5685 50.2519L43.3615 50.5776L44.8373 46.7174C45.3098 46.721 45.785 46.5936 46.2173 46.3299C46.583 46.1067 47.0615 46.2619 47.2266 46.658C47.4609 47.2206 47.8606 47.6615 48.3586 47.9374L46.8402 51.9086ZM54.6931 50.2519C54.0861 50.088 53.4482 50.3322 53.1053 50.8587L52.4215 51.9086L50.9033 47.9374C51.4013 47.6614 51.8009 47.2206 52.0354 46.658C52.1998 46.263 52.6776 46.1061 53.0447 46.33C53.477 46.5938 53.9522 46.7212 54.4245 46.7175L55.9004 50.5778L54.6931 50.2519ZM63.0943 42.2631C63.0943 43.633 61.9797 44.7477 60.6097 44.7477H56.9319C57.0306 44.3516 57.0362 43.9281 56.9352 43.5034C56.8704 43.2314 56.9791 43.0277 57.0497 42.9307C57.1203 42.8336 57.2802 42.6673 57.5589 42.6447C59.8666 42.4586 60.8047 39.5801 59.045 38.0712C58.7196 37.7923 58.7192 37.2893 59.045 37.01C60.8023 35.503 59.8694 32.6229 57.5589 32.4365C57.1316 32.4019 56.8358 31.9952 56.9352 31.5778C57.4712 29.3259 55.0236 27.5438 53.0446 28.7513C52.6789 28.9745 52.2002 28.8194 52.0354 28.4233C52.0353 28.4233 52.0353 28.4233 52.0353 28.4233C51.1451 26.2862 48.1178 26.2834 47.2263 28.4233C47.0615 28.8188 46.5834 28.9749 46.217 28.7513C44.2395 27.5443 41.7902 29.3247 42.3264 31.5778C42.4256 31.9946 42.1305 32.4019 41.7028 32.4365C39.395 32.6227 38.457 35.5012 40.2167 37.01C40.5421 37.2891 40.5425 37.7919 40.2167 38.0712C38.4593 39.5784 39.3924 42.4585 41.7028 42.6447C42.13 42.6794 42.426 43.0859 42.3266 43.5034C42.2255 43.9281 42.2311 44.3517 42.3299 44.7477H4.39029C3.02034 44.7477 1.90569 43.633 1.90569 42.2631V5.02799C1.90569 3.65804 3.02034 2.54339 4.39029 2.54339H60.6096C61.9795 2.54339 63.0942 3.65804 63.0942 5.02799V42.2631H63.0943Z" fill="#9898A7"/>
<path d="M49.6308 43.1193C52.7069 43.1193 55.2095 40.6168 55.2095 37.5407C55.2095 34.4647 52.7069 31.962 49.6308 31.962C46.5547 31.962 44.0522 34.4647 44.0522 37.5407C44.0522 40.6168 46.5549 43.1193 49.6308 43.1193ZM49.6308 33.8677C51.6561 33.8677 53.3038 35.5155 53.3038 37.5407C53.3038 39.5659 51.6561 41.2136 49.6308 41.2136C47.6057 41.2136 45.9579 39.5659 45.9579 37.5407C45.9579 35.5153 47.6057 33.8677 49.6308 33.8677Z" fill="#9898A7"/>
</svg>
