<svg width="59" height="65" viewBox="0 0 59 65" fill="none" xmlns="http://www.w3.org/2000/svg">
<path d="M57.8674 48.9417C56.7246 47.2622 54.789 46.8504 52.6877 47.8387L38.0374 54.2895L38.0379 54.2446C38.0383 54.2092 38.0368 54.1737 38.0334 54.1385C37.7771 51.5614 35.8071 49.508 33.2428 49.1453C33.2347 49.144 33.2266 49.143 33.2183 49.1421L23.4777 48.0206C21.4203 47.7274 20.4076 47.0393 18.5015 45.9236C15.6807 44.2735 12.4624 43.4013 9.19433 43.4013H8.58698V42.4157C8.58698 40.9648 7.4067 39.7844 5.95575 39.7844H3.104C1.65318 39.7844 0.4729 40.9648 0.4729 42.4157V60.6285C0.4729 62.0793 1.65318 63.2597 3.104 63.2597H5.95588C7.3549 63.2597 8.49913 62.1613 8.57924 60.7821L18.1138 64.3311C19.3069 64.775 20.5573 65.0001 21.8298 65.0001H34.9678C36.9818 65.0001 38.9457 64.4326 40.6489 63.3589L57.0781 54.0899C58.2284 53.4403 59.2358 50.9529 57.8674 48.9417ZM56.045 52.4863L39.6923 61.7121C39.6781 61.7201 39.6642 61.7285 39.6504 61.7372C38.2479 62.626 36.6286 63.0958 34.9678 63.0958H21.8298C20.7848 63.0958 19.7578 62.911 18.778 62.5462L8.58698 58.753V51.845C8.58698 51.319 8.16067 50.8928 7.63483 50.8928C7.10899 50.8928 6.68268 51.319 6.68268 51.845V60.6286C6.68268 61.0294 6.35667 61.3555 5.95575 61.3555H3.104C2.70321 61.3555 2.3772 61.0295 2.3772 60.6286V42.4158C2.3772 42.015 2.70321 41.6888 3.104 41.6888H5.95588C6.35667 41.6888 6.68281 42.0149 6.68281 42.4158V47.3923C6.68281 47.9183 7.10912 48.3445 7.63496 48.3445C8.1608 48.3445 8.58711 47.9183 8.58711 47.3923V45.3056H9.19458C12.125 45.3056 15.0108 46.0876 17.5402 47.5673C19.5611 48.7485 20.7887 49.5632 23.223 49.9078C23.2312 49.9091 23.2393 49.9101 23.2475 49.911L32.9878 51.0325C34.6583 51.2739 35.9442 52.6031 36.1333 54.277L36.1267 54.8049C30.4677 54.7394 28.315 54.9935 24.6939 54.4649L23.0078 54.2187C22.4878 54.1432 22.004 54.5029 21.9281 55.0232C21.8522 55.5436 22.2124 56.0271 22.7327 56.103L24.4188 56.3491C28.2657 56.911 30.4845 56.6368 37.0671 56.7092C37.1989 56.7092 37.3377 56.6785 37.4508 56.6284L53.4666 49.5766C53.4744 49.5731 53.4822 49.5695 53.4899 49.5659C54.3524 49.1581 55.5389 48.9046 56.2932 50.0129C56.8213 50.7895 56.711 51.8363 56.045 52.4863Z" fill="#9898A7"/>
<path d="M12.2646 22.0303C13.033 22.6487 13.3099 23.6823 12.9537 24.6023C11.9936 27.0813 13.5729 29.8078 16.1944 30.2152C16.836 30.3149 17.3816 30.6778 17.7239 31.1915L13.2653 39.837C12.9977 40.3561 13.0547 40.9645 13.4141 41.4248C13.7735 41.8849 14.3497 42.0874 14.9183 41.9538L19.7815 40.8085L21.6679 45.4347C21.8885 45.9756 22.3879 46.3276 22.9714 46.3535C22.9943 46.3545 23.0172 46.355 23.0399 46.355C23.596 46.355 24.094 46.0528 24.3512 45.5541L28.5242 37.4626C29.1706 37.618 29.8345 37.6182 30.4818 37.4626L34.6547 45.5541C34.9118 46.0528 35.41 46.355 35.966 46.355C35.9888 46.355 36.0116 46.3545 36.0346 46.3535C36.6179 46.3276 37.1174 45.9754 37.338 45.4347L39.2244 40.8085L44.0876 41.9538C44.6562 42.0878 45.2325 41.8851 45.5919 41.4248C45.9513 40.9645 46.0083 40.3561 45.7407 39.837L41.2821 31.1915C41.6243 30.6778 42.17 30.3149 42.8115 30.2152C45.4384 29.8069 47.0102 27.0762 46.0522 24.6023C45.696 23.6823 45.9729 22.6487 46.7413 22.0303C48.8106 20.3646 48.8098 17.214 46.7413 15.5488C45.973 14.9305 45.6961 13.8968 46.0522 12.977C47.0121 10.4979 45.4329 7.77144 42.8116 7.36405C41.8369 7.21259 41.0802 6.45595 40.9288 5.48133C40.5206 2.85442 37.7897 1.28249 35.3158 2.2406C34.3956 2.59683 33.3624 2.31982 32.7438 1.5515C31.0767 -0.519614 27.926 -0.515044 26.2625 1.5515C25.644 2.31982 24.6106 2.59658 23.6907 2.2406C21.2117 1.28058 18.485 2.85988 18.0777 5.48133C17.9262 6.45595 17.1696 7.21259 16.195 7.36405C13.5681 7.77233 11.9964 10.503 12.9543 12.977C13.3105 13.8968 13.0336 14.9305 12.2652 15.5488C10.1939 17.216 10.1978 20.3667 12.2646 22.0303ZM23.0822 43.8598L21.4073 39.7519C21.1307 39.0738 20.4126 38.7032 19.6993 38.8713L15.3815 39.8883L18.622 33.6048C19.6434 35.3045 21.7694 36.0826 23.6902 35.3386C24.6098 34.9819 25.6435 35.2592 26.2621 36.0278C26.4326 36.2395 26.6219 36.4306 26.8252 36.6022L23.0822 43.8598ZM39.306 38.8713C38.5932 38.7041 37.8749 39.0739 37.5981 39.7521L35.9233 43.8598L32.1803 36.6022C32.3835 36.4307 32.5728 36.2397 32.7433 36.0278C33.362 35.2595 34.3956 34.9828 35.3151 35.3386C37.2363 36.0825 39.3622 35.3043 40.3834 33.6048L43.6238 39.8883L39.306 38.8713ZM13.4586 17.0324C14.8757 15.8919 15.3864 13.9858 14.7296 12.2896C14.2089 10.9453 15.0652 9.46677 16.4869 9.24588C18.2843 8.96658 19.6796 7.57124 19.9589 5.77371C20.1802 4.3498 21.6608 3.49655 23.0026 4.01642C24.6991 4.67328 26.6049 4.16267 27.7454 2.74562C28.6495 1.62247 30.3579 1.62488 31.26 2.74562C32.4004 4.16242 34.3065 4.67315 36.003 4.01642C37.3468 3.49579 38.8257 4.35209 39.0466 5.77371C39.3258 7.57111 40.7212 8.96645 42.5187 9.24588C43.9431 9.46715 44.7955 10.9479 44.2759 12.2896C43.619 13.9858 44.1298 15.8919 45.5467 17.0324C46.6696 17.9362 46.6674 19.6449 45.5467 20.5469C44.1296 21.6874 43.6189 23.5935 44.2759 25.2898C44.7964 26.6341 43.9401 28.1126 42.5186 28.3335C40.7212 28.6128 39.3258 30.0082 39.0466 31.8057C38.8255 33.2277 37.3472 34.0831 36.0029 33.5629C34.3068 32.9065 32.4006 33.4169 31.26 34.8338C30.3562 35.9567 28.6476 35.9545 27.7454 34.8338C26.6068 33.4191 24.7015 32.9051 23.0025 33.5629C21.6588 34.0836 20.1798 33.2274 19.9589 31.8057C19.6796 30.0083 18.2843 28.613 16.4867 28.3335C15.0623 28.1123 14.2099 26.6315 14.7296 25.2898C15.3864 23.5935 14.8757 21.6874 13.4586 20.5469C12.3357 19.643 12.3382 17.9343 13.4586 17.0324Z" fill="#9898A7"/>
<path d="M17.5028 20.0794C16.986 20.1761 16.6453 20.6735 16.742 21.1904C17.8889 27.3219 23.2556 31.7724 29.5028 31.7724C36.6614 31.7724 42.4854 25.9484 42.4854 18.7898C42.4854 11.6312 36.6614 5.80719 29.5028 5.80719C23.2565 5.80719 17.8899 10.2568 16.7423 16.3872C16.6455 16.904 16.986 17.4014 17.503 17.4983C18.0203 17.5948 18.5173 17.2544 18.6141 16.7376C19.5931 11.5076 24.1724 7.71149 29.5028 7.71149C35.6114 7.71149 40.5811 12.6812 40.5811 18.7898C40.5811 24.8984 35.6114 29.8681 29.5028 29.8681C24.1717 29.8681 19.5922 26.0714 18.6138 20.8403C18.5172 20.3234 18.0199 19.9838 17.5028 20.0794Z" fill="#9898A7"/>
<path d="M36.5138 15.2509L32.2788 15.0633L30.7917 11.0933C30.3456 9.9029 28.6596 9.90316 28.2136 11.0935L26.7266 15.0634L22.4915 15.2511C21.223 15.307 20.699 16.9097 21.6948 17.7029L25.0109 20.344L23.8806 24.4299C23.5416 25.6554 24.9056 26.646 25.9663 25.9453L29.5027 23.6077L33.0394 25.9455C34.0961 26.6436 35.4651 25.6594 35.125 24.4299L33.9947 20.344L37.3107 17.7029C38.3054 16.9103 37.7835 15.3069 36.5138 15.2509ZM32.5354 19.0717C32.103 19.4161 31.9189 19.9829 32.0663 20.5154L32.914 23.5794L30.2618 21.8263C30.2618 21.8263 30.2617 21.8262 30.2615 21.8262C30.0311 21.674 29.7669 21.5978 29.5027 21.5978C29.2385 21.5978 28.9742 21.674 28.7435 21.8263L26.0914 23.5794L26.939 20.5156C27.0866 19.9829 26.9023 19.4161 26.4699 19.0717L23.9832 17.091L27.1595 16.9503C27.7115 16.9258 28.1936 16.5756 28.3874 16.0581L29.5026 13.081L30.6179 16.0582C30.8117 16.5756 31.2938 16.9258 31.846 16.9503L35.022 17.091L32.5354 19.0717Z" fill="#9898A7"/>
</svg>
