<svg width="149" height="34" viewBox="0 0 149 34" fill="none" xmlns="http://www.w3.org/2000/svg">
<path fill-rule="evenodd" clip-rule="evenodd" d="M126.2 11.7845C124.609 11.7845 123.246 14.8785 123.246 19.9835C123.246 21.5304 123.7 22.2266 124.609 22.2266C126.276 22.2266 127.563 19.3647 127.563 14.4144C127.639 12.6354 127.26 11.7845 126.2 11.7845Z" fill="#24242E"/>
<path fill-rule="evenodd" clip-rule="evenodd" d="M131.805 0.336914H17.1949C7.95339 0.336914 0.454102 7.76234 0.454102 16.8121C0.454102 25.9392 7.95339 33.2873 17.1949 33.2873H131.805C141.047 33.2873 148.546 25.8618 148.546 16.8121C148.546 7.76234 141.047 0.336914 131.805 0.336914ZM17.1949 28.4917C10.6804 28.4917 5.37787 23.232 5.37787 16.8121C5.37787 10.3922 10.6804 5.1325 17.1949 5.1325C23.7095 5.1325 29.012 10.3922 29.012 16.8121C29.012 23.232 23.7095 28.4917 17.1949 28.4917ZM52.2673 11.3977C51.7371 11.6298 51.5098 11.4751 51.3583 12.0938C51.0553 13.4861 50.7523 15.2651 50.5251 17.2762C50.2221 19.5966 50.1463 20.9889 50.1463 21.3756C50.1463 21.9171 50.2221 22.1491 50.5251 22.3812C50.9038 22.6132 51.3583 22.6905 51.3583 23.3093C51.3583 24.5469 49.9191 25.011 46.8891 25.011C44.5408 25.011 43.4046 24.5469 43.4046 23.6187C43.4046 22.9999 43.7076 22.7679 44.3136 22.5359C44.8438 22.3038 44.9196 22.0718 45.0711 20.6021L45.2226 19.674C45.2983 19.3646 45.2983 19.2099 45.2983 18.9778C45.2983 18.3591 44.9953 18.2817 44.0863 18.2817H43.5561H42.9501C42.1168 18.2817 42.1168 18.3591 41.9653 19.3646L41.8895 20.5248C41.8138 21.1436 41.8138 21.685 41.8138 22.1491C41.8138 22.6905 42.041 22.6132 42.2683 22.7679C42.5713 22.9226 42.7228 23.1546 42.7228 23.5414C42.7228 24.7016 41.3593 25.1657 38.6323 25.1657C36.1325 25.1657 34.9205 24.779 34.9205 23.6961C34.9205 23.232 35.1478 22.9226 35.375 22.7679C35.7538 22.5359 36.2083 22.4585 36.284 22.0718C36.4355 21.6077 36.7385 19.9834 37.1173 17.2762C37.496 14.4143 37.5718 12.8673 37.5718 12.6353C37.5718 12.1712 37.496 12.0938 37.0415 11.9391C36.587 11.7071 36.3598 11.3977 36.3598 10.9336C36.3598 9.7734 37.799 9.30931 40.7533 9.30931C43.1016 9.30931 44.2378 9.69605 44.2378 10.7789C44.2378 11.3204 43.9348 11.4751 43.4803 11.7071C42.8743 12.0165 42.8743 12.3259 42.7228 13.4088L42.5713 14.4916C42.4955 14.8784 42.4955 15.1104 42.4955 15.2651C42.4955 15.6519 42.8743 15.6519 43.8591 15.6519H44.1621H44.4651C45.8286 15.6519 45.8286 15.5745 45.9801 14.4143L46.1316 13.4088C46.2073 12.9447 46.2073 12.6353 46.2073 12.4806C46.2073 12.0938 46.0558 12.0165 45.7528 11.7845C45.3741 11.5524 45.1468 11.3204 45.1468 10.8563C45.1468 9.69605 46.5103 9.30931 49.3131 9.30931C51.6613 9.30931 52.7976 9.6187 52.7976 10.7016C52.6461 10.9336 52.4946 11.3204 52.2673 11.3977ZM65.0692 15.5745C65.7509 15.5745 66.1297 15.4198 66.2812 14.9557C66.5842 14.1822 66.5842 13.4861 67.4174 13.4861C68.3264 13.4861 68.7809 14.4143 68.7809 16.116C68.7809 18.6684 68.0234 20.2154 66.8872 20.2154C66.1297 20.2154 65.9782 19.906 65.9782 19.2099C65.9024 18.127 65.9024 17.895 64.7662 17.895C63.9329 17.895 64.0087 18.0497 63.9329 18.9005V20.6021C63.9329 21.0662 63.9329 21.2983 63.9329 21.3756C63.9329 21.9171 64.1602 22.0718 64.9177 22.0718C65.1449 22.0718 65.3722 22.0718 65.5994 22.0718C65.7509 22.0718 65.8267 22.0718 65.9782 22.0718C67.3417 22.0718 67.8719 21.9171 68.6294 20.8342C69.2354 19.906 69.5384 19.2872 70.2202 19.2872C70.9019 19.2872 71.5079 19.9834 71.5079 21.0662C71.5079 23.1546 70.2202 25.0883 69.1597 25.0883C68.8567 25.0883 68.0992 24.779 66.5084 24.779C62.1906 24.779 59.4636 25.011 58.4031 25.011C57.1911 25.011 56.5851 24.4696 56.5851 23.6187C56.5851 22.4585 57.8729 22.3812 58.2516 21.8397C58.4789 21.5303 58.7061 20.4475 59.0091 18.5137C59.6151 15.1878 59.6909 13.0994 59.6909 12.5579C59.6909 11.9391 59.6151 11.7845 59.2364 11.5524C58.8576 11.3204 58.4789 11.243 58.4789 10.6242C58.4789 9.38666 59.1606 8.99992 60.6756 8.99992C61.7361 8.99992 63.4027 9.15461 65.6752 9.15461C67.1902 9.15461 68.1749 9.15461 68.6294 9.07726C69.0839 8.99992 69.4627 8.84522 69.7657 8.84522C70.5989 8.84522 71.7352 10.3148 71.7352 12.1712C71.7352 13.2541 71.2049 13.9502 70.4474 13.9502C69.5384 13.9502 69.3869 13.022 68.9324 12.3259C68.7052 11.9391 67.9477 11.7071 66.5842 11.7071C65.5237 11.7071 64.9934 11.7845 64.8419 12.1712C64.6147 12.7126 64.4632 13.9502 64.4632 14.801C64.3874 15.4972 64.5389 15.5745 65.0692 15.5745ZM93.2483 11.6298C92.9453 11.7071 92.718 11.7845 92.6423 12.0165C92.5665 12.2485 92.3393 13.1767 92.112 14.569C91.6575 17.7403 91.4303 20.3701 90.9 22.5359C90.4455 24.3149 89.9153 25.1657 88.8548 25.1657C88.173 25.1657 87.4913 24.779 86.961 24.1602C85.9763 22.9999 84.84 20.8342 83.022 17.9723L82.2645 16.7347C82.113 16.5027 82.0372 16.4253 81.8857 16.4253C81.7342 16.4253 81.6585 16.58 81.5827 16.8894L81.3555 18.3591C81.1282 19.7513 81.0525 20.8342 81.0525 21.3756C81.0525 21.9944 81.1282 22.2265 81.5827 22.5359C82.113 22.8452 82.5675 22.9999 82.5675 23.7734C82.5675 24.6243 81.507 25.0883 79.386 25.0883C77.0377 25.0883 75.9015 24.6243 75.9015 23.6187C75.9015 23.232 76.053 22.9999 76.4317 22.7679C76.7347 22.5359 77.3407 22.5359 77.4922 22.1491C77.6437 21.8397 78.0225 20.8342 78.3255 19.1325C79.0072 15.4198 79.1587 13.1767 79.1587 12.79C79.1587 12.0938 79.0072 11.9391 78.4012 11.7845C77.7195 11.5524 77.4165 11.3204 77.4165 10.7789C77.4165 9.6187 78.8557 9.23196 81.81 9.23196C83.7037 9.23196 84.537 10.3148 86.1278 12.79L87.567 15.0331C88.2488 16.116 88.5518 16.8121 88.8548 16.8121C89.0063 16.8121 89.1578 16.58 89.1578 16.1933L89.3093 14.7237C89.385 13.8729 89.385 13.1767 89.385 12.6353C89.385 12.0165 89.3093 11.8618 88.8548 11.7071C88.2488 11.4751 87.7185 11.3977 87.7185 10.6242C87.7185 9.6187 88.9305 9.15461 91.2788 9.15461C93.4755 9.15461 94.4603 9.46401 94.4603 10.5469C94.3088 11.1657 93.93 11.3977 93.2483 11.6298ZM110.671 15.0331C109.989 15.0331 109.459 14.6463 108.929 13.7955C108.398 12.8673 108.171 12.0165 107.186 12.0165C105.596 12.0165 104.081 14.4916 104.081 18.2044C104.081 20.2928 104.838 21.3756 106.202 21.3756C107.035 21.3756 107.792 20.9115 108.626 20.0607C109.459 19.2099 109.838 18.4364 110.595 18.4364C111.201 18.4364 111.731 19.0552 111.731 20.1381C111.731 20.8342 111.504 21.5303 111.125 22.3038C110.595 23.1546 109.989 23.6187 109.762 23.6187C109.61 23.6187 109.459 23.5414 109.383 23.5414C109.156 23.5414 108.777 23.9281 108.095 24.3149C106.959 24.9337 105.671 25.243 104.308 25.243C100.52 25.243 98.1721 22.6906 98.1721 18.9778C98.1721 16.5027 99.0053 14.1822 100.596 12.1712C102.338 10.0054 104.535 8.84522 106.732 8.84522C108.55 8.84522 109.535 9.46401 109.686 9.46401C109.838 9.46401 109.989 9.15461 110.292 9.15461C111.125 9.15461 112.489 10.7789 112.489 12.6353C112.489 14.1049 111.656 15.0331 110.671 15.0331ZM131.351 21.7624C129.608 24.0828 127.033 25.243 124.003 25.243C119.761 25.243 117.413 22.9226 117.413 18.6684C117.413 16.5027 118.17 14.2596 119.609 12.4806C121.427 10.1601 124.079 8.84522 127.033 8.84522C130.972 8.84522 133.472 11.243 133.472 15.1878C133.472 17.6629 132.638 20.0607 131.351 21.7624Z" fill="#24242E"/>
<path fill-rule="evenodd" clip-rule="evenodd" d="M17.1947 7.14343C11.7407 7.14343 7.34717 11.4749 7.34717 16.812C7.34717 22.149 11.7407 26.4805 17.1947 26.4805C22.6487 26.4805 27.0423 22.149 27.0423 16.812C27.0423 11.4749 22.573 7.14343 17.1947 7.14343Z" fill="#24242E"/>
</svg>
