<svg viewBox="0 0 65 63" xmlns="http://www.w3.org/2000/svg">
<path d="M48.555 37.5219C48.0283 37.5219 47.6014 37.9488 47.6014 38.4755V42.9141C46.4702 43.3095 45.656 44.3868 45.656 45.6513C45.656 47.2497 46.9565 48.5502 48.555 48.5502C49.8197 48.5502 50.8973 47.7358 51.2923 46.604L53.629 46.6034C54.1558 46.6033 54.5825 46.1762 54.5823 45.6496C54.5822 45.123 54.1554 44.6963 53.6288 44.6963C53.6287 44.6963 53.6285 44.6963 53.6285 44.6963L51.2918 44.697C51.0009 43.8648 50.3408 43.205 49.5085 42.9141V38.4755C49.5087 37.9488 49.0817 37.5219 48.555 37.5219ZM48.555 46.6431C48.0081 46.6431 47.5631 46.1983 47.5631 45.6513C47.5631 45.1043 48.0079 44.6594 48.555 44.6594C49.102 44.6594 49.5469 45.1042 49.5469 45.6513C49.5469 46.1982 49.102 46.6431 48.555 46.6431Z" />
<path d="M30.2306 51.8691H3.84249C2.77532 51.8691 1.90722 51.001 1.90722 49.9337V16.4612H55.5956V27.8906C55.5956 28.4173 56.0225 28.8442 56.5491 28.8442C57.0757 28.8442 57.5027 28.4172 57.5027 27.8906C57.5027 25.8087 57.5027 11.7886 57.5027 9.66434C57.5027 7.54562 55.7789 5.82198 53.6602 5.82198H51.259V4.77474C51.259 2.64028 49.5225 0.903813 47.388 0.903813C45.2536 0.903813 43.517 2.64015 43.517 4.77461V5.82185H38.8346V4.77461C38.8346 2.64015 37.0981 0.903687 34.9637 0.903687C32.8291 0.903687 31.0926 2.64028 31.0926 4.77461V5.82185H26.4101V4.77461C26.4101 2.64015 24.6736 0.903687 22.5391 0.903687C20.4047 0.903687 18.6682 2.64028 18.6682 4.77461V5.82185H13.9858V4.77461C13.9858 2.64015 12.2493 0.903687 10.1147 0.903687C7.98027 0.903687 6.24381 2.64028 6.24381 4.77461V5.82185H3.84249C1.72377 5.82172 0 7.54549 0 9.66421V49.9339C0 52.0526 1.72377 53.7764 3.84249 53.7764H30.2306C30.7572 53.7764 31.1841 53.3494 31.1841 52.8228C31.1841 52.2962 30.7573 51.8691 30.2306 51.8691ZM45.4241 4.77461C45.4241 3.69183 46.305 2.81078 47.3879 2.81078C48.4708 2.81078 49.3518 3.6917 49.3518 4.77461V8.77618C49.3518 9.85896 48.4708 10.74 47.3879 10.74C46.305 10.74 45.4241 9.85909 45.4241 8.77618V4.77461ZM34.9635 2.81078C36.0463 2.81078 36.9274 3.6917 36.9274 4.77461V8.77618C36.9274 9.85896 36.0464 10.74 34.9635 10.74C33.8806 10.74 32.9996 9.85909 32.9996 8.77618V6.77781C32.9996 6.77705 32.9997 6.77616 32.9997 6.7754C32.9997 6.77451 32.9996 6.77375 32.9996 6.77298V4.77461C32.9997 3.6917 33.8807 2.81078 34.9635 2.81078ZM20.5753 4.77461C20.5753 3.69183 21.4562 2.81078 22.5391 2.81078C23.6219 2.81078 24.503 3.6917 24.503 4.77461V8.77618C24.503 9.85896 23.622 10.74 22.5391 10.74C21.4563 10.74 20.5753 9.85909 20.5753 8.77618V4.77461ZM8.15077 4.77461C8.15077 3.69183 9.0317 2.81078 10.1146 2.81078C11.1974 2.81078 12.0784 3.6917 12.0784 4.77461V6.77413V6.7754V6.77667V8.77618C12.0784 9.85896 11.1975 10.74 10.1146 10.74C9.03183 10.74 8.15077 9.85909 8.15077 8.77618V4.77461ZM1.90722 9.66421C1.90722 8.59717 2.77532 7.72894 3.84249 7.72894H6.24368V8.77618C6.24368 10.9106 7.98015 12.6471 10.1147 12.6471C12.2492 12.6471 13.9857 10.9105 13.9857 8.77618V7.72894H18.6681V8.77618C18.6681 10.9106 20.4045 12.6471 22.539 12.6471C24.6735 12.6471 26.4099 10.9105 26.4099 8.77618V7.72894H31.0923V8.77618C31.0923 10.9106 32.8288 12.6471 34.9634 12.6471C37.0979 12.6471 38.8343 10.9105 38.8343 8.77618V7.72894H43.5167V8.77618C43.5167 10.9106 45.2532 12.6471 47.3877 12.6471C49.5221 12.6471 51.2586 10.9105 51.2586 8.77618V7.72894H53.6598C54.727 7.72894 55.5952 8.59705 55.5952 9.66421V14.5539H1.90722V9.66421Z" />
<path d="M14.9196 22.4675C14.9196 21.457 14.0974 20.6348 13.0868 20.6348H6.92096C5.91041 20.6348 5.08813 21.457 5.08813 22.4675V28.6335C5.08813 29.6441 5.91041 30.4662 6.92096 30.4662H13.0868C14.0974 30.4662 14.9196 29.6441 14.9196 28.6335V22.4675ZM13.0125 28.5591H6.99535V22.542H13.0125V28.5591Z" />
<path d="M27.4179 22.4675C27.4179 21.457 26.5957 20.6348 25.5851 20.6348H19.4192C18.4087 20.6348 17.5864 21.457 17.5864 22.4675V28.6335C17.5864 29.6441 18.4087 30.4662 19.4192 30.4662H25.5851C26.5957 30.4662 27.4179 29.6441 27.4179 28.6335V22.4675ZM25.5108 28.5591H19.4936V22.542H25.5108V28.5591Z" />
<path d="M13.0868 36.4019H6.92096C5.91041 36.4019 5.08813 37.2241 5.08813 38.2346V44.4006C5.08813 45.4111 5.91041 46.2333 6.92096 46.2333H13.0868C14.0974 46.2333 14.9196 45.4111 14.9196 44.4006V38.2346C14.9196 37.2241 14.0975 36.4019 13.0868 36.4019ZM13.0125 44.3262H6.99535V38.3091H13.0125V44.3262Z" />
<path d="M25.5851 36.4019H19.4192C18.4087 36.4019 17.5864 37.2241 17.5864 38.2346V44.4006C17.5864 45.4111 18.4087 46.2333 19.4192 46.2333H25.5851C26.5957 46.2333 27.4179 45.4111 27.4179 44.4006V38.2346C27.4179 37.2241 26.5958 36.4019 25.5851 36.4019ZM25.5108 44.3262H19.4936V38.3091H25.5108V44.3262Z" />
<path d="M62.1123 36.3548L63.4325 35.0347C64.4871 33.9796 64.4874 32.2725 63.4324 31.2173L62.4396 30.2245C61.3848 29.1696 59.677 29.1692 58.6221 30.2244L57.1867 31.6598C55.672 30.7219 53.9948 30.0227 52.2074 29.6159V27.9363C53.3471 27.5999 54.1814 26.5445 54.1814 25.2973V24.3521C54.1814 22.8348 52.9471 21.6006 51.43 21.6006H45.68C44.1628 21.6006 42.9286 22.8349 42.9286 24.3521V25.2973C42.9286 26.5445 43.763 27.6 44.9027 27.9363V29.6159C43.1153 30.0227 41.4381 30.722 39.9235 31.6598L38.6421 30.3785C39.3802 30.1416 39.9162 29.4493 39.9162 28.6336V22.4676C39.9162 21.4571 39.0939 20.6349 38.0834 20.6349H31.9175C30.907 20.6349 30.0847 21.4571 30.0847 22.4676V28.6336C30.0847 29.6442 30.907 30.4663 31.9175 30.4663H34.4288L33.6779 31.2173C32.6226 32.2722 32.6228 33.9798 33.6777 35.035L34.9977 36.3549C33.1774 39.0011 32.1103 42.2038 32.1103 45.6513C32.1103 54.7191 39.4874 62.0963 48.5553 62.0963C57.6231 62.0963 64.9999 54.7191 64.9999 45.6513C64.9999 42.2038 63.9326 39.0011 62.1123 36.3548ZM59.9708 31.573C60.2808 31.2627 60.7807 31.2628 61.0907 31.5731L62.0836 32.566C62.3934 32.8755 62.3945 33.3755 62.0838 33.6862L60.9331 34.8369C60.2759 34.0859 59.5519 33.395 58.77 32.7734L59.9708 31.573ZM44.8355 24.3521C44.8355 23.8865 45.2142 23.5076 45.6799 23.5076H51.4299C51.8955 23.5076 52.2742 23.8865 52.2742 24.3521V25.2973C52.2742 25.763 51.8955 26.1417 51.4299 26.1417H45.6799C45.2142 26.1417 44.8355 25.763 44.8355 25.2973V24.3521ZM46.8097 28.0488H50.3002V29.299C49.7265 29.2382 49.1444 29.2063 48.555 29.2063C47.9656 29.2063 47.3833 29.2382 46.8098 29.299V28.0488H46.8097ZM31.9917 22.542H38.0089V28.5591H31.9917V22.542ZM35.0261 33.6862C34.7162 33.3766 34.7149 32.877 35.0261 32.5659L36.0189 31.5731C36.3285 31.2632 36.8283 31.2622 37.1392 31.5731L38.3397 32.7734C37.5579 33.3949 36.8338 34.0858 36.1767 34.8369L35.0261 33.6862ZM48.5549 60.1891C40.5388 60.1891 34.0171 53.6674 34.0171 45.6513C34.0171 37.6352 40.5388 31.1135 48.5549 31.1135C56.5709 31.1135 63.0927 37.6352 63.0927 45.6513C63.0927 53.6674 56.5711 60.1891 48.5549 60.1891Z"/>
<path d="M48.555 33.2164C42.6214 33.2164 37.4891 37.4368 36.3516 43.2514C36.2506 43.7682 36.5875 44.2692 37.1045 44.3702C37.6216 44.4717 38.1221 44.1343 38.2233 43.6174C39.1861 38.6957 43.5312 35.1235 48.555 35.1235C54.36 35.1235 59.0827 39.8462 59.0827 45.6512C59.0827 51.4561 54.36 56.1789 48.555 56.1789C43.5427 56.1789 39.1995 52.6163 38.2278 47.7078C38.1254 47.1911 37.624 46.8553 37.1071 46.9575C36.5904 47.0598 36.2547 47.5614 36.3569 48.0781C37.5048 53.8771 42.6348 58.0861 48.555 58.0861C55.4116 58.0861 60.99 52.5079 60.99 45.6512C60.99 38.7944 55.4118 33.2164 48.555 33.2164Z" />
</svg>
