<svg width="86" height="14" viewBox="0 0 86 14" fill="none" xmlns="http://www.w3.org/2000/svg">
<path d="M6.73227 1.24445C6.84325 1.02491 7.15675 1.02491 7.26773 1.24445L9.09245 4.85395C9.13666 4.9414 9.22079 5.00175 9.3178 5.01559L13.3868 5.59631C13.635 5.63173 13.7328 5.93791 13.5512 6.11069L10.6166 8.90157C10.5438 8.97081 10.5104 9.0719 10.5278 9.17086L11.2216 13.1204C11.2645 13.3645 11.0096 13.5524 10.7891 13.4391L7.13704 11.5639C7.05102 11.5197 6.94898 11.5197 6.86296 11.5639L3.21094 13.4391C2.99043 13.5524 2.73554 13.3645 2.77842 13.1204L3.47217 9.17086C3.48955 9.0719 3.45624 8.97081 3.38344 8.90157L0.448844 6.11069C0.267169 5.93791 0.365002 5.63173 0.613201 5.59631L4.6822 5.01559C4.77921 5.00175 4.86334 4.9414 4.90755 4.85395L6.73227 1.24445Z" fill="#FFDE67"/>
<path d="M24.7323 1.24445C24.8432 1.02491 25.1568 1.02491 25.2677 1.24445L27.0925 4.85395C27.1367 4.9414 27.2208 5.00175 27.3178 5.01559L31.3868 5.59631C31.635 5.63173 31.7328 5.93791 31.5512 6.11069L28.6166 8.90157C28.5438 8.97081 28.5104 9.0719 28.5278 9.17086L29.2216 13.1204C29.2645 13.3645 29.0096 13.5524 28.7891 13.4391L25.137 11.5639C25.051 11.5197 24.949 11.5197 24.863 11.5639L21.2109 13.4391C20.9904 13.5524 20.7355 13.3645 20.7784 13.1204L21.4722 9.17086C21.4896 9.0719 21.4562 8.97081 21.3834 8.90157L18.4488 6.11069C18.2672 5.93791 18.365 5.63173 18.6132 5.59631L22.6822 5.01559C22.7792 5.00175 22.8633 4.9414 22.9075 4.85395L24.7323 1.24445Z" fill="#FFDE67"/>
<path d="M42.7323 1.24445C42.8432 1.02491 43.1568 1.02491 43.2677 1.24445L45.0925 4.85395C45.1367 4.9414 45.2208 5.00175 45.3178 5.01559L49.3868 5.59631C49.635 5.63173 49.7328 5.93791 49.5512 6.11069L46.6166 8.90157C46.5438 8.97081 46.5104 9.0719 46.5278 9.17086L47.2216 13.1204C47.2645 13.3645 47.0096 13.5524 46.7891 13.4391L43.137 11.5639C43.051 11.5197 42.949 11.5197 42.863 11.5639L39.2109 13.4391C38.9904 13.5524 38.7355 13.3645 38.7784 13.1204L39.4722 9.17086C39.4896 9.0719 39.4562 8.97081 39.3834 8.90157L36.4488 6.11069C36.2672 5.93791 36.365 5.63173 36.6132 5.59631L40.6822 5.01559C40.7792 5.00175 40.8633 4.9414 40.9075 4.85395L42.7323 1.24445Z" fill="#FFDE67"/>
<path d="M60.7323 1.24445C60.8432 1.02491 61.1568 1.02491 61.2677 1.24445L63.0925 4.85395C63.1367 4.9414 63.2208 5.00175 63.3178 5.01559L67.3868 5.59631C67.635 5.63173 67.7328 5.93791 67.5512 6.11069L64.6166 8.90157C64.5438 8.97081 64.5104 9.0719 64.5278 9.17086L65.2216 13.1204C65.2645 13.3645 65.0096 13.5524 64.7891 13.4391L61.137 11.5639C61.051 11.5197 60.949 11.5197 60.863 11.5639L57.2109 13.4391C56.9904 13.5524 56.7355 13.3645 56.7784 13.1204L57.4722 9.17086C57.4896 9.0719 57.4562 8.97081 57.3834 8.90157L54.4488 6.11069C54.2672 5.93791 54.365 5.63173 54.6132 5.59631L58.6822 5.01559C58.7792 5.00175 58.8633 4.9414 58.9075 4.85395L60.7323 1.24445Z" fill="#FFDE67"/>
<path d="M78.7323 1.24445C78.8432 1.02491 79.1568 1.02491 79.2677 1.24445L81.0925 4.85395C81.1367 4.9414 81.2208 5.00175 81.3178 5.01559L85.3868 5.59631C85.635 5.63173 85.7328 5.93791 85.5512 6.11069L82.6166 8.90157C82.5438 8.97081 82.5104 9.0719 82.5278 9.17086L83.2216 13.1204C83.2645 13.3645 83.0096 13.5524 82.7891 13.4391L79.137 11.5639C79.051 11.5197 78.949 11.5197 78.863 11.5639L75.2109 13.4391C74.9904 13.5524 74.7355 13.3645 74.7784 13.1204L75.4722 9.17086C75.4896 9.0719 75.4562 8.97081 75.3834 8.90157L72.4488 6.11069C72.2672 5.93791 72.365 5.63173 72.6132 5.59631L76.6822 5.01559C76.7792 5.00175 76.8633 4.9414 76.9075 4.85395L78.7323 1.24445Z" fill="#FFDE67"/>
</svg>
